<?xml version="1.0" encoding="UTF-8"?>
<!DOCTYPE svg PUBLIC "-//W3C//DTD SVG 1.1//EN" "http://www.w3.org/Graphics/SVG/1.1/DTD/svg11.dtd">
<!-- Creator: CorelDRAW 2017 -->
<svg xmlns="http://www.w3.org/2000/svg" xml:space="preserve" width="205.8mm" height="205.8mm" version="1.1" style="shape-rendering:geometricPrecision; text-rendering:geometricPrecision; image-rendering:optimizeQuality; fill-rule:evenodd; clip-rule:evenodd"
viewBox="0 0 20580 20580"
 xmlns:xlink="http://www.w3.org/1999/xlink">
 <defs>
  <style type="text/css">
   <![CDATA[
    .fil0 {fill:white}
   ]]>
  </style>
 </defs>
 <g id="Слой_x0020_1">
  <metadata id="CorelCorpID_0Corel-Layer"/>
  <g id="_1758417242224">
   <g>
    <path class="fil0" d="M515 4116c-137,0 -256,-53 -359,-153 -103,-103 -155,-223 -155,-361l0 -3087c0,-137 50,-258 155,-359 103,-103 223,-155 359,-155l19551 0c137,0 256,53 361,155 103,103 153,223 153,359l0 3087c0,137 -53,258 -153,361 -103,103 -223,153 -361,153l-19551 0zm0 8232c-137,0 -256,-53 -359,-155 -103,-103 -155,-223 -155,-361l0 -3087c0,-137 50,-258 155,-361 103,-103 223,-153 359,-153l19551 0c137,0 256,53 361,153 103,103 153,223 153,361l0 3087c0,137 -53,258 -153,361 -103,103 -223,155 -361,155l-19551 0zm0 8232c-137,0 -256,-53 -359,-153 -105,-105 -155,-225 -155,-361l0 -3087c0,-137 50,-256 155,-361 103,-103 223,-153 359,-153l19551 0c137,0 256,53 361,153 103,103 153,223 153,361l0 3087c0,137 -53,256 -153,361 -103,103 -223,153 -361,153l-19551 0z"/>
   </g>
  </g>
 </g>
</svg>
